<?xml version="1.0" encoding="UTF-8" standalone="no"?><svg xmlns="http://www.w3.org/2000/svg" xmlns:xlink="http://www.w3.org/1999/xlink" contentScriptType="application/ecmascript" contentStyleType="text/css" height="470px" preserveAspectRatio="none" style="width:407px;height:470px;" version="1.1" viewBox="0 0 407 470" width="407px" zoomAndPan="magnify"><defs><filter height="300%" id="f1o9sexfio67mj" width="300%" x="-1" y="-1"><feGaussianBlur result="blurOut" stdDeviation="2.0"/><feColorMatrix in="blurOut" result="blurOut2" type="matrix" values="0 0 0 0 0 0 0 0 0 0 0 0 0 0 0 0 0 0 .4 0"/><feOffset dx="4.0" dy="4.0" in="blurOut2" result="blurOut3"/><feBlend in="SourceGraphic" in2="blurOut3" mode="normal"/></filter></defs><g><rect fill="#007ACC" filter="url(#f1o9sexfio67mj)" height="58.6211" style="stroke: #000000; stroke-width: 1.0;" width="10" x="127.5" y="117.7988"/><rect fill="#007ACC" filter="url(#f1o9sexfio67mj)" height="159.5527" style="stroke: #000000; stroke-width: 1.0;" width="10" x="127.5" y="205.7305"/><rect fill="#229CEE" filter="url(#f1o9sexfio67mj)" height="63.6211" style="stroke: #000000; stroke-width: 1.0;" width="10" x="132.5" y="301.6621"/><rect fill="#DD3633" filter="url(#f1o9sexfio67mj)" height="29.3105" style="stroke: #000000; stroke-width: 1.0;" width="10" x="321.5" y="147.1094"/><rect fill="#DD3633" filter="url(#f1o9sexfio67mj)" height="29.3105" style="stroke: #000000; stroke-width: 1.0;" width="10" x="321.5" y="235.041"/><rect fill="#DD3633" filter="url(#f1o9sexfio67mj)" height="29.3105" style="stroke: #000000; stroke-width: 1.0;" width="10" x="321.5" y="335.9727"/><line style="stroke: #000000; stroke-width: 1.0; stroke-dasharray: 5.0,5.0;" x1="26" x2="26" y1="86.4883" y2="383.2832"/><line style="stroke: #000000; stroke-width: 1.0; stroke-dasharray: 5.0,5.0;" x1="132" x2="132" y1="86.4883" y2="383.2832"/><line style="stroke: #000000; stroke-width: 1.0; stroke-dasharray: 5.0,5.0;" x1="326.5" x2="326.5" y1="86.4883" y2="383.2832"/><text fill="#000000" font-family="sans-serif" font-size="14" lengthAdjust="spacingAndGlyphs" textLength="31" x="8" y="83.5352">User</text><ellipse cx="26.5" cy="13" fill="#FFFFFF" filter="url(#f1o9sexfio67mj)" rx="8" ry="8" style="stroke: #000000; stroke-width: 2.0;"/><path d="M26.5,21 L26.5,48 M13.5,29 L39.5,29 M26.5,48 L13.5,63 M26.5,48 L39.5,63 " fill="none" filter="url(#f1o9sexfio67mj)" style="stroke: #000000; stroke-width: 2.0;"/><text fill="#000000" font-family="sans-serif" font-size="14" lengthAdjust="spacingAndGlyphs" textLength="31" x="8" y="395.8184">User</text><ellipse cx="26.5" cy="408.7715" fill="#FFFFFF" filter="url(#f1o9sexfio67mj)" rx="8" ry="8" style="stroke: #000000; stroke-width: 2.0;"/><path d="M26.5,416.7715 L26.5,443.7715 M13.5,424.7715 L39.5,424.7715 M26.5,443.7715 L13.5,458.7715 M26.5,443.7715 L39.5,458.7715 " fill="none" filter="url(#f1o9sexfio67mj)" style="stroke: #000000; stroke-width: 2.0;"/><rect fill="#007ACC" filter="url(#f1o9sexfio67mj)" height="46.9766" style="stroke: #000000; stroke-width: 1.5;" width="143" x="59" y="34.5117"/><text fill="#FFFFFF" font-family="sans-serif" font-size="14" lengthAdjust="spacingAndGlyphs" textLength="14" x="123.5" y="55.0469">UI</text><text fill="#FFFFFF" font-family="sans-serif" font-size="14" lengthAdjust="spacingAndGlyphs" textLength="129" x="66" y="71.5352">(TypeScript/Svelte)</text><rect fill="#007ACC" filter="url(#f1o9sexfio67mj)" height="46.9766" style="stroke: #000000; stroke-width: 1.5;" width="143" x="59" y="382.2832"/><text fill="#FFFFFF" font-family="sans-serif" font-size="14" lengthAdjust="spacingAndGlyphs" textLength="14" x="123.5" y="402.8184">UI</text><text fill="#FFFFFF" font-family="sans-serif" font-size="14" lengthAdjust="spacingAndGlyphs" textLength="129" x="66" y="419.3066">(TypeScript/Svelte)</text><rect fill="#DD3633" filter="url(#f1o9sexfio67mj)" height="46.9766" style="stroke: #000000; stroke-width: 1.5;" width="144" x="252.5" y="34.5117"/><text fill="#FFFFFF" font-family="sans-serif" font-size="14" lengthAdjust="spacingAndGlyphs" textLength="60" x="294.5" y="55.0469">REST API</text><text fill="#FFFFFF" font-family="sans-serif" font-size="14" lengthAdjust="spacingAndGlyphs" textLength="130" x="259.5" y="71.5352">(Scala/Akka-HTTP)</text><rect fill="#DD3633" filter="url(#f1o9sexfio67mj)" height="46.9766" style="stroke: #000000; stroke-width: 1.5;" width="144" x="252.5" y="382.2832"/><text fill="#FFFFFF" font-family="sans-serif" font-size="14" lengthAdjust="spacingAndGlyphs" textLength="60" x="294.5" y="402.8184">REST API</text><text fill="#FFFFFF" font-family="sans-serif" font-size="14" lengthAdjust="spacingAndGlyphs" textLength="130" x="259.5" y="419.3066">(Scala/Akka-HTTP)</text><rect fill="#007ACC" filter="url(#f1o9sexfio67mj)" height="58.6211" style="stroke: #000000; stroke-width: 1.0;" width="10" x="127.5" y="117.7988"/><rect fill="#007ACC" filter="url(#f1o9sexfio67mj)" height="159.5527" style="stroke: #000000; stroke-width: 1.0;" width="10" x="127.5" y="205.7305"/><rect fill="#229CEE" filter="url(#f1o9sexfio67mj)" height="63.6211" style="stroke: #000000; stroke-width: 1.0;" width="10" x="132.5" y="301.6621"/><rect fill="#DD3633" filter="url(#f1o9sexfio67mj)" height="29.3105" style="stroke: #000000; stroke-width: 1.0;" width="10" x="321.5" y="147.1094"/><rect fill="#DD3633" filter="url(#f1o9sexfio67mj)" height="29.3105" style="stroke: #000000; stroke-width: 1.0;" width="10" x="321.5" y="235.041"/><rect fill="#DD3633" filter="url(#f1o9sexfio67mj)" height="29.3105" style="stroke: #000000; stroke-width: 1.0;" width="10" x="321.5" y="335.9727"/><polygon fill="#A80036" points="115.5,113.7988,125.5,117.7988,115.5,121.7988,119.5,117.7988" style="stroke: #A80036; stroke-width: 1.0;"/><line style="stroke: #A80036; stroke-width: 1.0;" x1="26.5" x2="121.5" y1="117.7988" y2="117.7988"/><text fill="#000000" font-family="sans-serif" font-size="13" lengthAdjust="spacingAndGlyphs" textLength="82" x="33.5" y="113.0566">Signup using</text><polygon fill="#A80036" points="309.5,143.1094,319.5,147.1094,309.5,151.1094,313.5,147.1094" style="stroke: #A80036; stroke-width: 1.0;"/><line style="stroke: #A80036; stroke-width: 1.0;" x1="137.5" x2="315.5" y1="147.1094" y2="147.1094"/><text fill="#000000" font-family="sans-serif" font-size="13" lengthAdjust="spacingAndGlyphs" textLength="150" x="144.5" y="142.3672">POST /signup (Account)</text><polygon fill="#A80036" points="143.5,172.4199,133.5,176.4199,143.5,180.4199,139.5,176.4199" style="stroke: #A80036; stroke-width: 1.0;"/><line style="stroke: #A80036; stroke-width: 1.0;" x1="137.5" x2="325.5" y1="176.4199" y2="176.4199"/><text fill="#000000" font-family="sans-serif" font-size="13" lengthAdjust="spacingAndGlyphs" textLength="133" x="149.5" y="171.6777">Ok(UserName) | error</text><polygon fill="#A80036" points="115.5,201.7305,125.5,205.7305,115.5,209.7305,119.5,205.7305" style="stroke: #A80036; stroke-width: 1.0;"/><line style="stroke: #A80036; stroke-width: 1.0;" x1="26.5" x2="121.5" y1="205.7305" y2="205.7305"/><text fill="#000000" font-family="sans-serif" font-size="13" lengthAdjust="spacingAndGlyphs" textLength="35" x="33.5" y="200.9883">Login</text><polygon fill="#A80036" points="309.5,231.041,319.5,235.041,309.5,239.041,313.5,235.041" style="stroke: #A80036; stroke-width: 1.0;"/><line style="stroke: #A80036; stroke-width: 1.0;" x1="137.5" x2="315.5" y1="235.041" y2="235.041"/><text fill="#000000" font-family="sans-serif" font-size="13" lengthAdjust="spacingAndGlyphs" textLength="165" x="144.5" y="230.2988">POST /signin (Credentials)</text><polygon fill="#A80036" points="148.5,260.3516,138.5,264.3516,148.5,268.3516,144.5,264.3516" style="stroke: #A80036; stroke-width: 1.0;"/><line style="stroke: #A80036; stroke-width: 1.0;" x1="142.5" x2="325.5" y1="264.3516" y2="264.3516"/><text fill="#000000" font-family="sans-serif" font-size="13" lengthAdjust="spacingAndGlyphs" textLength="136" x="154.5" y="259.6094">Ok(UserToken) | error</text><line style="stroke: #A80036; stroke-width: 1.0;" x1="137.5" x2="184.5" y1="288.6621" y2="288.6621"/><line style="stroke: #A80036; stroke-width: 1.0;" x1="184.5" x2="184.5" y1="288.6621" y2="301.6621"/><line style="stroke: #A80036; stroke-width: 1.0;" x1="143.5" x2="184.5" y1="301.6621" y2="301.6621"/><polygon fill="#A80036" points="153.5,297.6621,143.5,301.6621,153.5,305.6621,149.5,301.6621" style="stroke: #A80036; stroke-width: 1.0;"/><text fill="#000000" font-family="sans-serif" font-size="13" lengthAdjust="spacingAndGlyphs" textLength="156" x="149.5" y="283.9199">[If Ok] Redirect to profile</text><polygon fill="#A80036" points="309.5,331.9727,319.5,335.9727,309.5,339.9727,313.5,335.9727" style="stroke: #A80036; stroke-width: 1.0;"/><line style="stroke: #A80036; stroke-width: 1.0;" x1="142.5" x2="315.5" y1="335.9727" y2="335.9727"/><text fill="#000000" font-family="sans-serif" font-size="13" lengthAdjust="spacingAndGlyphs" textLength="24" x="149.5" y="331.2305">GET</text><polygon fill="#A80036" points="143.5,361.2832,133.5,365.2832,143.5,369.2832,139.5,365.2832" style="stroke: #A80036; stroke-width: 1.0;"/><line style="stroke: #A80036; stroke-width: 1.0;" x1="137.5" x2="325.5" y1="365.2832" y2="365.2832"/><text fill="#000000" font-family="sans-serif" font-size="13" lengthAdjust="spacingAndGlyphs" textLength="52" x="149.5" y="360.541">Account</text><!--MD5=[98217a3e0f0ca4e33ac2ad12d3f35b76]
@startuml
skinparam sequence {
  ActorBorderColor #000
  LifeLineBorderColor #000
  ParticipantBorderColor #000
  ParticipantFontColor #fff
  ActorBackgroundColor #fff
}

actor User
participant "UI\n(TypeScript/Svelte)" as UI #007acc
participant "REST API\n(Scala/Akka-HTTP)" as API #dd3633

User -> UI : Signup using
activate UI #007acc
UI -> API : POST /signup (Account)
activate API #dd3633
UI <- API : Ok(UserName) | error
deactivate API
deactivate UI

User -> UI : Login
activate UI #007acc

UI -> API : POST /signin (Credentials)
activate API #dd3633
UI <- API : Ok(UserToken) | error
deactivate API

UI -> UI : [If Ok] Redirect to profile
activate UI #229cee
UI -> API : GET
activate API #dd3633
UI <- API : Account
deactivate API
deactivate UI

deactivate UI
@enduml

PlantUML version 1.2020.11(Sat May 30 12:13:43 CEST 2020)
(GPL source distribution)
Java Runtime: Java(TM) SE Runtime Environment
JVM: Java HotSpot(TM) 64-Bit Server VM
Default Encoding: UTF-8
Language: fr
Country: FR
--></g></svg>