<?xml version="1.0" encoding="UTF-8" standalone="no"?><svg xmlns="http://www.w3.org/2000/svg" xmlns:xlink="http://www.w3.org/1999/xlink" contentScriptType="application/ecmascript" contentStyleType="text/css" height="564px" preserveAspectRatio="none" style="width:477px;height:564px;" version="1.1" viewBox="0 0 477 564" width="477px" zoomAndPan="magnify"><defs><filter height="300%" id="f18arbvj09ko7a" width="300%" x="-1" y="-1"><feGaussianBlur result="blurOut" stdDeviation="2.0"/><feColorMatrix in="blurOut" result="blurOut2" type="matrix" values="0 0 0 0 0 0 0 0 0 0 0 0 0 0 0 0 0 0 .4 0"/><feOffset dx="4.0" dy="4.0" in="blurOut2" result="blurOut3"/><feBlend in="SourceGraphic" in2="blurOut3" mode="normal"/></filter></defs><g><!--MD5=[f9a29335b499db729be669fd1bd54958]
class Account--><rect fill="#FFFFFF" filter="url(#f18arbvj09ko7a)" height="119.041" id="Account" style="stroke: #A80036; stroke-width: 1.5;" width="172" x="39" y="152"/><rect fill="#007ACC" height="38.2656" style="stroke: #A80036; stroke-width: 1.5;" width="172" x="39" y="152"/><ellipse cx="86.75" cy="171.1328" fill="#ADD1B2" rx="11" ry="11" style="stroke: #A80036; stroke-width: 1.0;"/><path d="M89.2231,177.2759 Q88.6421,177.5747 88.0029,177.7241 Q87.3638,177.8735 86.6582,177.8735 Q84.1514,177.8735 82.8315,176.2217 Q81.5117,174.5698 81.5117,171.4487 Q81.5117,168.3193 82.8315,166.6675 Q84.1514,165.0156 86.6582,165.0156 Q87.3638,165.0156 88.0112,165.165 Q88.6587,165.3145 89.2231,165.6133 L89.2231,168.3359 Q88.5923,167.7549 87.9988,167.4851 Q87.4053,167.2153 86.7744,167.2153 Q85.4297,167.2153 84.7449,168.282 Q84.0601,169.3486 84.0601,171.4487 Q84.0601,173.5405 84.7449,174.6072 Q85.4297,175.6738 86.7744,175.6738 Q87.4053,175.6738 87.9988,175.4041 Q88.5923,175.1343 89.2231,174.5532 Z "/><text fill="#000000" font-family="sans-serif" font-size="12" font-style="italic" lengthAdjust="spacingAndGlyphs" textLength="72" x="105.25" y="168.6016">«Case class»</text><text fill="#FFFFFF" font-family="sans-serif" font-size="12" lengthAdjust="spacingAndGlyphs" textLength="45" x="118.75" y="182.7344">Account</text><line style="stroke: #A80036; stroke-width: 1.5;" x1="40" x2="210" y1="190.2656" y2="190.2656"/><text fill="#000000" font-family="sans-serif" font-size="11" lengthAdjust="spacingAndGlyphs" textLength="112" x="45" y="204.9004">userName UserName</text><text fill="#000000" font-family="sans-serif" font-size="11" lengthAdjust="spacingAndGlyphs" textLength="160" x="45" y="217.8555">contact Option[ContactName]</text><text fill="#000000" font-family="sans-serif" font-size="11" lengthAdjust="spacingAndGlyphs" textLength="68" x="45" y="230.8105">usage Usage</text><text fill="#000000" font-family="sans-serif" font-size="11" lengthAdjust="spacingAndGlyphs" textLength="87" x="45" y="243.7656">password String</text><text fill="#000000" font-family="sans-serif" font-size="11" lengthAdjust="spacingAndGlyphs" textLength="131" x="45" y="256.7207">favoriteFoods Seq[Food]</text><line style="stroke: #A80036; stroke-width: 1.5;" x1="40" x2="210" y1="263.041" y2="263.041"/><!--MD5=[9a6e98b13a389138a8ee3cd2798f9215]
class UserName--><rect fill="#FFFFFF" filter="url(#f18arbvj09ko7a)" height="67.2207" id="UserName" style="stroke: #A80036; stroke-width: 1.5;" width="104" x="73" y="8"/><rect fill="#007ACC" height="38.2656" style="stroke: #A80036; stroke-width: 1.5;" width="104" x="73" y="8"/><ellipse cx="88" cy="27.1328" fill="#ADD1B2" rx="11" ry="11" style="stroke: #A80036; stroke-width: 1.0;"/><path d="M90.4731,33.2759 Q89.8921,33.5747 89.2529,33.7241 Q88.6138,33.8735 87.9082,33.8735 Q85.4014,33.8735 84.0815,32.2217 Q82.7617,30.5698 82.7617,27.4487 Q82.7617,24.3193 84.0815,22.6675 Q85.4014,21.0156 87.9082,21.0156 Q88.6138,21.0156 89.2612,21.165 Q89.9087,21.3145 90.4731,21.6133 L90.4731,24.3359 Q89.8423,23.7549 89.2488,23.4851 Q88.6553,23.2153 88.0244,23.2153 Q86.6797,23.2153 85.9949,24.282 Q85.3101,25.3486 85.3101,27.4487 Q85.3101,29.5405 85.9949,30.6072 Q86.6797,31.6738 88.0244,31.6738 Q88.6553,31.6738 89.2488,31.4041 Q89.8423,31.1343 90.4731,30.5532 Z "/><text fill="#000000" font-family="sans-serif" font-size="12" font-style="italic" lengthAdjust="spacingAndGlyphs" textLength="76" x="100" y="24.6016">«Value class»</text><text fill="#FFFFFF" font-family="sans-serif" font-size="12" lengthAdjust="spacingAndGlyphs" textLength="60" x="108" y="38.7344">UserName</text><line style="stroke: #A80036; stroke-width: 1.5;" x1="74" x2="176" y1="46.2656" y2="46.2656"/><text fill="#000000" font-family="sans-serif" font-size="11" lengthAdjust="spacingAndGlyphs" textLength="64" x="79" y="60.9004">name String</text><line style="stroke: #A80036; stroke-width: 1.5;" x1="74" x2="176" y1="67.2207" y2="67.2207"/><!--MD5=[2c6775f1f1daeee04104ef272804aee3]
class ContactName--><rect fill="#FFFFFF" filter="url(#f18arbvj09ko7a)" height="93.1309" id="ContactName" style="stroke: #A80036; stroke-width: 1.5;" width="109" x="357.5" y="165"/><rect fill="#007ACC" height="38.2656" style="stroke: #A80036; stroke-width: 1.5;" width="109" x="357.5" y="165"/><ellipse cx="372.5" cy="184.1328" fill="#ADD1B2" rx="11" ry="11" style="stroke: #A80036; stroke-width: 1.0;"/><path d="M374.9731,190.2759 Q374.3921,190.5747 373.7529,190.7241 Q373.1138,190.8735 372.4082,190.8735 Q369.9014,190.8735 368.5815,189.2217 Q367.2617,187.5698 367.2617,184.4487 Q367.2617,181.3193 368.5815,179.6675 Q369.9014,178.0156 372.4082,178.0156 Q373.1138,178.0156 373.7612,178.165 Q374.4087,178.3145 374.9731,178.6133 L374.9731,181.3359 Q374.3423,180.7549 373.7488,180.4851 Q373.1553,180.2153 372.5244,180.2153 Q371.1797,180.2153 370.4949,181.282 Q369.8101,182.3486 369.8101,184.4487 Q369.8101,186.5405 370.4949,187.6072 Q371.1797,188.6738 372.5244,188.6738 Q373.1553,188.6738 373.7488,188.4041 Q374.3423,188.1343 374.9731,187.5532 Z "/><text fill="#000000" font-family="sans-serif" font-size="12" font-style="italic" lengthAdjust="spacingAndGlyphs" textLength="72" x="389" y="181.6016">«Case class»</text><text fill="#FFFFFF" font-family="sans-serif" font-size="12" lengthAdjust="spacingAndGlyphs" textLength="77" x="386.5" y="195.7344">ContactName</text><line style="stroke: #A80036; stroke-width: 1.5;" x1="358.5" x2="465.5" y1="203.2656" y2="203.2656"/><text fill="#000000" font-family="sans-serif" font-size="11" lengthAdjust="spacingAndGlyphs" textLength="87" x="363.5" y="217.9004">firstName String</text><text fill="#000000" font-family="sans-serif" font-size="11" lengthAdjust="spacingAndGlyphs" textLength="84" x="363.5" y="230.8555">lastName String</text><text fill="#000000" font-family="sans-serif" font-size="11" lengthAdjust="spacingAndGlyphs" textLength="36" x="363.5" y="243.8105">age Int</text><line style="stroke: #A80036; stroke-width: 1.5;" x1="358.5" x2="465.5" y1="250.1309" y2="250.1309"/><!--MD5=[fec335c53e6985c9a15b8954b7814644]
class Usage--><rect fill="#FFFFFF" filter="url(#f18arbvj09ko7a)" height="73.9102" id="Usage" style="stroke: #A80036; stroke-width: 1.5;" width="78" x="10" y="348"/><rect fill="#007ACC" height="32" style="stroke: #A80036; stroke-width: 1.5;" width="78" x="10" y="348"/><ellipse cx="29.95" cy="364" fill="#EB937F" rx="11" ry="11" style="stroke: #A80036; stroke-width: 1.0;"/><path d="M33.5643,370.5 L25.8445,370.5 L25.8445,358.1069 L33.5643,358.1069 L33.5643,360.2651 L28.2933,360.2651 L28.2933,362.938 L33.0662,362.938 L33.0662,365.0962 L28.2933,365.0962 L28.2933,368.3418 L33.5643,368.3418 Z "/><text fill="#FFFFFF" font-family="sans-serif" font-size="12" lengthAdjust="spacingAndGlyphs" textLength="35" x="45.05" y="368.5352">Usage</text><line style="stroke: #A80036; stroke-width: 1.5;" x1="11" x2="87" y1="380" y2="380"/><text fill="#000000" font-family="sans-serif" font-size="11" lengthAdjust="spacingAndGlyphs" textLength="46" x="16" y="394.6348">Personal</text><text fill="#000000" font-family="sans-serif" font-size="11" lengthAdjust="spacingAndGlyphs" textLength="66" x="16" y="407.5898">Professional</text><line style="stroke: #A80036; stroke-width: 1.5;" x1="11" x2="87" y1="413.9102" y2="413.9102"/><!--MD5=[5b4460e97222b45c9cf25eacd4639dbc]
class Food--><rect fill="#FFFFFF" filter="url(#f18arbvj09ko7a)" height="67.2207" id="Food" style="stroke: #A80036; stroke-width: 1.5;" width="76" x="163" y="351.5"/><rect fill="#007ACC" height="38.2656" style="stroke: #A80036; stroke-width: 1.5;" width="76" x="163" y="351.5"/><ellipse cx="179.8" cy="370.6328" fill="#B4A7E5" rx="11" ry="11" style="stroke: #A80036; stroke-width: 1.0;"/><path d="M176.2277,366.8979 L176.2277,364.7397 L183.6071,364.7397 L183.6071,366.8979 L181.1418,366.8979 L181.1418,374.9746 L183.6071,374.9746 L183.6071,377.1328 L176.2277,377.1328 L176.2277,374.9746 L178.6931,374.9746 L178.6931,366.8979 Z "/><text fill="#000000" font-family="sans-serif" font-size="12" font-style="italic" lengthAdjust="spacingAndGlyphs" textLength="44" x="192.2" y="368.1016">«Union»</text><text fill="#FFFFFF" font-family="sans-serif" font-size="12" font-style="italic" lengthAdjust="spacingAndGlyphs" textLength="28" x="200.2" y="382.2344">Food</text><line style="stroke: #A80036; stroke-width: 1.5;" x1="164" x2="238" y1="389.7656" y2="389.7656"/><text fill="#000000" font-family="sans-serif" font-size="11" lengthAdjust="spacingAndGlyphs" textLength="64" x="169" y="404.4004">name String</text><line style="stroke: #A80036; stroke-width: 1.5;" x1="164" x2="238" y1="410.7207" y2="410.7207"/><!--MD5=[ff6e167e2976495d2390a565bdc55923]
class JapaneseSushi--><rect fill="#FFFFFF" filter="url(#f18arbvj09ko7a)" height="54.2656" id="JapaneseSushi" style="stroke: #A80036; stroke-width: 1.5;" width="114" x="6" y="499"/><rect fill="#007ACC" height="38.2656" style="stroke: #A80036; stroke-width: 1.5;" width="114" x="6" y="499"/><ellipse cx="21" cy="518.1328" fill="#ADD1B2" rx="11" ry="11" style="stroke: #A80036; stroke-width: 1.0;"/><path d="M23.4731,524.2759 Q22.8921,524.5747 22.2529,524.7241 Q21.6138,524.8735 20.9082,524.8735 Q18.4014,524.8735 17.0815,523.2217 Q15.7617,521.5698 15.7617,518.4487 Q15.7617,515.3193 17.0815,513.6675 Q18.4014,512.0156 20.9082,512.0156 Q21.6138,512.0156 22.2612,512.165 Q22.9087,512.3145 23.4731,512.6133 L23.4731,515.3359 Q22.8423,514.7549 22.2488,514.4851 Q21.6553,514.2153 21.0244,514.2153 Q19.6797,514.2153 18.9949,515.282 Q18.3101,516.3486 18.3101,518.4487 Q18.3101,520.5405 18.9949,521.6072 Q19.6797,522.6738 21.0244,522.6738 Q21.6553,522.6738 22.2488,522.4041 Q22.8423,522.1343 23.4731,521.5532 Z "/><text fill="#000000" font-family="sans-serif" font-size="12" font-style="italic" lengthAdjust="spacingAndGlyphs" textLength="63" x="44.5" y="515.6016">«Singleton»</text><text fill="#FFFFFF" font-family="sans-serif" font-size="12" lengthAdjust="spacingAndGlyphs" textLength="82" x="35" y="529.7344">JapaneseSushi</text><line style="stroke: #A80036; stroke-width: 1.5;" x1="7" x2="119" y1="537.2656" y2="537.2656"/><line style="stroke: #A80036; stroke-width: 1.5;" x1="7" x2="119" y1="545.2656" y2="545.2656"/><!--MD5=[5c5a2dd8ed299478ae091ad6bda6d6bd]
class Pizza--><rect fill="#FFFFFF" filter="url(#f18arbvj09ko7a)" height="54.2656" id="Pizza" style="stroke: #A80036; stroke-width: 1.5;" width="91" x="155.5" y="499"/><rect fill="#007ACC" height="38.2656" style="stroke: #A80036; stroke-width: 1.5;" width="91" x="155.5" y="499"/><ellipse cx="170.5" cy="518.1328" fill="#ADD1B2" rx="11" ry="11" style="stroke: #A80036; stroke-width: 1.0;"/><path d="M172.9731,524.2759 Q172.3921,524.5747 171.7529,524.7241 Q171.1138,524.8735 170.4082,524.8735 Q167.9014,524.8735 166.5815,523.2217 Q165.2617,521.5698 165.2617,518.4487 Q165.2617,515.3193 166.5815,513.6675 Q167.9014,512.0156 170.4082,512.0156 Q171.1138,512.0156 171.7612,512.165 Q172.4087,512.3145 172.9731,512.6133 L172.9731,515.3359 Q172.3423,514.7549 171.7488,514.4851 Q171.1553,514.2153 170.5244,514.2153 Q169.1797,514.2153 168.4949,515.282 Q167.8101,516.3486 167.8101,518.4487 Q167.8101,520.5405 168.4949,521.6072 Q169.1797,522.6738 170.5244,522.6738 Q171.1553,522.6738 171.7488,522.4041 Q172.3423,522.1343 172.9731,521.5532 Z "/><text fill="#000000" font-family="sans-serif" font-size="12" font-style="italic" lengthAdjust="spacingAndGlyphs" textLength="63" x="182.5" y="515.6016">«Singleton»</text><text fill="#FFFFFF" font-family="sans-serif" font-size="12" lengthAdjust="spacingAndGlyphs" textLength="31" x="198.5" y="529.7344">Pizza</text><line style="stroke: #A80036; stroke-width: 1.5;" x1="156.5" x2="245.5" y1="537.2656" y2="537.2656"/><line style="stroke: #A80036; stroke-width: 1.5;" x1="156.5" x2="245.5" y1="545.2656" y2="545.2656"/><!--MD5=[561fb29c63eebe04b5d39c0a38ffc13c]
class OtherFood--><rect fill="#FFFFFF" filter="url(#f18arbvj09ko7a)" height="54.2656" id="OtherFood" style="stroke: #A80036; stroke-width: 1.5;" width="100" x="282" y="499"/><rect fill="#007ACC" height="38.2656" style="stroke: #A80036; stroke-width: 1.5;" width="100" x="282" y="499"/><ellipse cx="297" cy="518.1328" fill="#ADD1B2" rx="11" ry="11" style="stroke: #A80036; stroke-width: 1.0;"/><path d="M299.4731,524.2759 Q298.8921,524.5747 298.2529,524.7241 Q297.6138,524.8735 296.9082,524.8735 Q294.4014,524.8735 293.0815,523.2217 Q291.7617,521.5698 291.7617,518.4487 Q291.7617,515.3193 293.0815,513.6675 Q294.4014,512.0156 296.9082,512.0156 Q297.6138,512.0156 298.2612,512.165 Q298.9087,512.3145 299.4731,512.6133 L299.4731,515.3359 Q298.8423,514.7549 298.2488,514.4851 Q297.6553,514.2153 297.0244,514.2153 Q295.6797,514.2153 294.9949,515.282 Q294.3101,516.3486 294.3101,518.4487 Q294.3101,520.5405 294.9949,521.6072 Q295.6797,522.6738 297.0244,522.6738 Q297.6553,522.6738 298.2488,522.4041 Q298.8423,522.1343 299.4731,521.5532 Z "/><text fill="#000000" font-family="sans-serif" font-size="12" font-style="italic" lengthAdjust="spacingAndGlyphs" textLength="72" x="309" y="515.6016">«Case class»</text><text fill="#FFFFFF" font-family="sans-serif" font-size="12" lengthAdjust="spacingAndGlyphs" textLength="60" x="315" y="529.7344">OtherFood</text><line style="stroke: #A80036; stroke-width: 1.5;" x1="283" x2="381" y1="537.2656" y2="537.2656"/><line style="stroke: #A80036; stroke-width: 1.5;" x1="283" x2="381" y1="545.2656" y2="545.2656"/><!--MD5=[20424ade59358a1753c8444c83dc8889]
link UserName to Account--><path d="M125,75.0865 C125,96.9552 125,126.0967 125,151.8295 " fill="none" id="UserName-Account" style="stroke: #A80036; stroke-width: 1.0;"/><polygon fill="#000000" points="170,116,173,110,176,116,170,116" style="stroke: #000000; stroke-width: 1.0;"/><text fill="#000000" font-family="sans-serif" font-size="13" lengthAdjust="spacingAndGlyphs" textLength="97" x="126" y="131.5684">is composed of</text><!--MD5=[0719ae0ecb2e256046b4903a60f8f3d1]
link Account to ContactName--><path d="M211.1095,211.5 C258.4968,211.5 315.8808,211.5 357.1647,211.5 " fill="none" id="Account-ContactName" style="stroke: #A80036; stroke-width: 1.0;"/><text fill="#000000" font-family="sans-serif" font-size="13" lengthAdjust="spacingAndGlyphs" textLength="97" x="229.25" y="205.0684">is composed of</text><polygon fill="#000000" points="329.25,198.6553,335.25,201.6553,329.25,204.6553,329.25,198.6553" style="stroke: #000000; stroke-width: 1.0;"/><!--MD5=[59a15d44e531edb69a7e836e2511b9f7]
link Account to Usage--><path d="M62.4574,271.1803 C55.7631,280.4978 49.9591,290.5319 46,301 C40.4764,315.6045 40.0943,332.6751 41.5207,347.5991 " fill="none" id="Account-Usage" style="stroke: #A80036; stroke-width: 1.0;"/><text fill="#000000" font-family="sans-serif" font-size="13" lengthAdjust="spacingAndGlyphs" textLength="97" x="47" y="314.5684">is composed of</text><polygon fill="#000000" points="91,323.3105,94,329.3105,97,323.3105,91,323.3105" style="stroke: #000000; stroke-width: 1.0;"/><!--MD5=[7686e08b22b1811df38ce7e37356435d]
link Account to Food--><path d="M151.1549,271.2089 C162.8339,297.8709 176.1716,328.3194 186.1095,351.0065 " fill="none" id="Account-Food" style="stroke: #A80036; stroke-width: 1.0;"/><text fill="#000000" font-family="sans-serif" font-size="13" lengthAdjust="spacingAndGlyphs" textLength="97" x="171" y="314.5684">is composed of</text><polygon fill="#000000" points="215,323.3105,218,329.3105,221,323.3105,215,323.3105" style="stroke: #000000; stroke-width: 1.0;"/><!--MD5=[4be729f38886fc28d3fe42f6a666df6e]
reverse link Food to JapaneseSushi--><path d="M153.7622,433.2647 C132.3916,455.0999 107.9182,480.1053 89.774,498.644 " fill="none" id="Food&lt;-JapaneseSushi" style="stroke: #A80036; stroke-width: 1.0;"/><polygon fill="none" points="148.9536,428.1702,167.9456,418.773,158.959,437.9627,148.9536,428.1702" style="stroke: #A80036; stroke-width: 1.0;"/><text fill="#000000" font-family="sans-serif" font-size="13" lengthAdjust="spacingAndGlyphs" textLength="34" x="133" y="465.5684">sushi</text><!--MD5=[ff30e67737fe1ee2ba955e2877bd3b19]
reverse link Food to Pizza--><path d="M201,438.9985 C201,459.3793 201,481.7096 201,498.644 " fill="none" id="Food&lt;-Pizza" style="stroke: #A80036; stroke-width: 1.0;"/><polygon fill="none" points="194.0001,438.773,201,418.773,208.0001,438.773,194.0001,438.773" style="stroke: #A80036; stroke-width: 1.0;"/><text fill="#000000" font-family="sans-serif" font-size="13" lengthAdjust="spacingAndGlyphs" textLength="33" x="202" y="465.5684">pizza</text><!--MD5=[73687d1f2c50ba8ab143e51699ff4e7b]
reverse link Food to OtherFood--><path d="M246.1345,433.5799 C266.3515,455.3402 289.4431,480.1944 306.5841,498.644 " fill="none" id="Food&lt;-OtherFood" style="stroke: #A80036; stroke-width: 1.0;"/><polygon fill="none" points="240.8625,438.1898,232.3778,418.773,251.1191,428.6606,240.8625,438.1898" style="stroke: #A80036; stroke-width: 1.0;"/><!--MD5=[2893a67231dba784b733a9f5d74e04d3]
@startuml
skinparam class {
  FontColor automatic
  HeaderBackgroundColor #007acc
  BackgroundColor #fff
}

class Account << Case class >>
Account : userName UserName 
Account : contact Option[ContactName]
Account : usage Usage
Account : password String
Account : favoriteFoods Seq[Food]

class UserName << Value class >>
UserName : name String
Account -up- UserName : is composed of >

class ContactName << Case class >>
ContactName : firstName String
ContactName : lastName String
ContactName : age Int
Account - ContactName : is composed of >

enum Usage
Usage : Personal
Usage : Professional
Account -down- Usage : is composed of >

interface Food << Union >>
Food : name String
Account -down- Food : is composed of >

class JapaneseSushi << Singleton >>
Food <|-down- JapaneseSushi : sushi

class Pizza << Singleton >>
Food <|-down- Pizza : pizza

class OtherFood << Case class >>
Food <|-down- OtherFood
@enduml

PlantUML version 1.2020.11(Sat May 30 12:13:43 CEST 2020)
(GPL source distribution)
Java Runtime: Java(TM) SE Runtime Environment
JVM: Java HotSpot(TM) 64-Bit Server VM
Default Encoding: UTF-8
Language: fr
Country: FR
--></g></svg>